<svg width="78" height="72" viewBox="0 0 78 72" fill="none" xmlns="http://www.w3.org/2000/svg">
<path fill-rule="evenodd" clip-rule="evenodd" d="M46.9971 21H31.0031C29.8981 21 29.0031 20.105 29.0031 19V5C29.0031 3.895 29.8981 3 31.0031 3H46.9971C48.1021 3 48.9971 3.895 48.9971 5V19C48.9971 20.105 48.1011 21 46.9971 21Z" stroke="#888888" stroke-width="1.5" stroke-linecap="round" stroke-linejoin="round"/>
<path d="M36.4142 7.58579C37.1953 8.36684 37.1953 9.63317 36.4142 10.4142C35.6332 11.1953 34.3668 11.1953 33.5858 10.4142C32.8047 9.63317 32.8047 8.36684 33.5858 7.58579C34.3668 6.80474 35.6332 6.80474 36.4142 7.58579" stroke="#888888" stroke-width="1.5" stroke-linecap="round" stroke-linejoin="round"/>
<path d="M49 16L44.781 12.625C44.35 12.28 43.72 12.35 43.375 12.781L40.039 16.951C39.694 17.382 39.065 17.452 38.633 17.107L36.765 15.612C36.34 15.272 35.721 15.334 35.372 15.753L31 21" stroke="#888888" stroke-width="1.5" stroke-linecap="round" stroke-linejoin="round"/>
<path d="M20.167 37.965V47H18.685V37.965H20.167ZM30.7837 39.72C31.347 39.72 31.8497 39.837 32.2917 40.071C32.7424 40.305 33.0934 40.6517 33.3447 41.111C33.6047 41.5703 33.7347 42.125 33.7347 42.775V47H32.2657V42.996C32.2657 42.3547 32.1054 41.865 31.7847 41.527C31.464 41.1803 31.0264 41.007 30.4717 41.007C29.917 41.007 29.475 41.1803 29.1457 41.527C28.825 41.865 28.6647 42.3547 28.6647 42.996V47H27.1957V42.996C27.1957 42.3547 27.0354 41.865 26.7147 41.527C26.394 41.1803 25.9564 41.007 25.4017 41.007C24.847 41.007 24.405 41.1803 24.0757 41.527C23.755 41.865 23.5947 42.3547 23.5947 42.996V47H22.1127V39.837H23.5947V40.656C23.8374 40.3613 24.145 40.1317 24.5177 39.967C24.8904 39.8023 25.289 39.72 25.7137 39.72C26.2857 39.72 26.797 39.8413 27.2477 40.084C27.6984 40.3267 28.045 40.6777 28.2877 41.137C28.5044 40.7037 28.8424 40.3613 29.3017 40.11C29.761 39.85 30.255 39.72 30.7837 39.72ZM35.1265 43.386C35.1265 42.6667 35.2738 42.0297 35.5685 41.475C35.8718 40.9203 36.2792 40.4913 36.7905 40.188C37.3105 39.876 37.8825 39.72 38.5065 39.72C39.0698 39.72 39.5595 39.8327 39.9755 40.058C40.4002 40.2747 40.7382 40.5477 40.9895 40.877V39.837H42.4845V47H40.9895V45.934C40.7382 46.272 40.3958 46.5537 39.9625 46.779C39.5292 47.0043 39.0352 47.117 38.4805 47.117C37.8652 47.117 37.3018 46.961 36.7905 46.649C36.2792 46.3283 35.8718 45.8863 35.5685 45.323C35.2738 44.751 35.1265 44.1053 35.1265 43.386ZM40.9895 43.412C40.9895 42.918 40.8855 42.489 40.6775 42.125C40.4782 41.761 40.2138 41.4837 39.8845 41.293C39.5552 41.1023 39.1998 41.007 38.8185 41.007C38.4372 41.007 38.0818 41.1023 37.7525 41.293C37.4232 41.475 37.1545 41.748 36.9465 42.112C36.7472 42.4673 36.6475 42.892 36.6475 43.386C36.6475 43.88 36.7472 44.3133 36.9465 44.686C37.1545 45.0587 37.4232 45.3447 37.7525 45.544C38.0905 45.7347 38.4458 45.83 38.8185 45.83C39.1998 45.83 39.5552 45.7347 39.8845 45.544C40.2138 45.3533 40.4782 45.076 40.6775 44.712C40.8855 44.3393 40.9895 43.906 40.9895 43.412ZM47.3171 39.72C47.8717 39.72 48.3614 39.8327 48.7861 40.058C49.2194 40.2747 49.5574 40.5477 49.8001 40.877V39.837H51.2951V47.117C51.2951 47.7757 51.1564 48.3607 50.8791 48.872C50.6017 49.392 50.1987 49.7993 49.6701 50.094C49.1501 50.3887 48.5261 50.536 47.7981 50.536C46.8274 50.536 46.0214 50.3063 45.3801 49.847C44.7387 49.3963 44.3747 48.781 44.2881 48.001H45.7571C45.8697 48.3737 46.1081 48.6727 46.4721 48.898C46.8447 49.132 47.2867 49.249 47.7981 49.249C48.3961 49.249 48.8771 49.067 49.2411 48.703C49.6137 48.339 49.8001 47.8103 49.8001 47.117V45.921C49.5487 46.259 49.2064 46.545 48.7731 46.779C48.3484 47.0043 47.8631 47.117 47.3171 47.117C46.6931 47.117 46.1211 46.961 45.6011 46.649C45.0897 46.3283 44.6824 45.8863 44.3791 45.323C44.0844 44.751 43.9371 44.1053 43.9371 43.386C43.9371 42.6667 44.0844 42.0297 44.3791 41.475C44.6824 40.9203 45.0897 40.4913 45.6011 40.188C46.1211 39.876 46.6931 39.72 47.3171 39.72ZM49.8001 43.412C49.8001 42.918 49.6961 42.489 49.4881 42.125C49.2887 41.761 49.0244 41.4837 48.6951 41.293C48.3657 41.1023 48.0104 41.007 47.6291 41.007C47.2477 41.007 46.8924 41.1023 46.5631 41.293C46.2337 41.475 45.9651 41.748 45.7571 42.112C45.5577 42.4673 45.4581 42.892 45.4581 43.386C45.4581 43.88 45.5577 44.3133 45.7571 44.686C45.9651 45.0587 46.2337 45.3447 46.5631 45.544C46.9011 45.7347 47.2564 45.83 47.6291 45.83C48.0104 45.83 48.3657 45.7347 48.6951 45.544C49.0244 45.3533 49.2887 45.076 49.4881 44.712C49.6961 44.3393 49.8001 43.906 49.8001 43.412ZM59.8066 43.243C59.8066 43.5117 59.7893 43.7543 59.7546 43.971H54.2816C54.3249 44.543 54.5373 45.0023 54.9186 45.349C55.2999 45.6957 55.7679 45.869 56.3226 45.869C57.1199 45.869 57.6833 45.5353 58.0126 44.868H59.6116C59.3949 45.5267 59.0006 46.0683 58.4286 46.493C57.8653 46.909 57.1633 47.117 56.3226 47.117C55.6379 47.117 55.0226 46.9653 54.4766 46.662C53.9393 46.35 53.5146 45.9167 53.2026 45.362C52.8993 44.7987 52.7476 44.1487 52.7476 43.412C52.7476 42.6753 52.8949 42.0297 53.1896 41.475C53.4929 40.9117 53.9133 40.4783 54.4506 40.175C54.9966 39.8717 55.6206 39.72 56.3226 39.72C56.9986 39.72 57.6009 39.8673 58.1296 40.162C58.6583 40.4567 59.0699 40.8727 59.3646 41.41C59.6593 41.9387 59.8066 42.5497 59.8066 43.243ZM58.2596 42.775C58.2509 42.229 58.0559 41.7913 57.6746 41.462C57.2933 41.1327 56.8209 40.968 56.2576 40.968C55.7463 40.968 55.3086 41.1327 54.9446 41.462C54.5806 41.7827 54.3639 42.2203 54.2946 42.775H58.2596ZM7.50009 59.837V67H6.01809V66.155C5.78409 66.4497 5.47642 66.6837 5.09509 66.857C4.72242 67.0217 4.32375 67.104 3.89909 67.104C3.33575 67.104 2.82875 66.987 2.37809 66.753C1.93609 66.519 1.58509 66.1723 1.32509 65.713C1.07375 65.2537 0.948086 64.699 0.948086 64.049V59.837H2.41709V63.828C2.41709 64.4693 2.57742 64.9633 2.89809 65.31C3.21875 65.648 3.65642 65.817 4.21109 65.817C4.76575 65.817 5.20342 65.648 5.52409 65.31C5.85342 64.9633 6.01809 64.4693 6.01809 63.828V59.837H7.50009ZM13.0695 59.72C13.6328 59.72 14.1355 59.837 14.5775 60.071C15.0281 60.305 15.3791 60.6517 15.6305 61.111C15.8818 61.5703 16.0075 62.125 16.0075 62.775V67H14.5385V62.996C14.5385 62.3547 14.3781 61.865 14.0575 61.527C13.7368 61.1803 13.2991 61.007 12.7445 61.007C12.1898 61.007 11.7478 61.1803 11.4185 61.527C11.0978 61.865 10.9375 62.3547 10.9375 62.996V67H9.45547V59.837H10.9375V60.656C11.1801 60.3613 11.4878 60.1317 11.8605 59.967C12.2418 59.8023 12.6448 59.72 13.0695 59.72ZM17.4039 63.386C17.4039 62.6667 17.5512 62.0297 17.8459 61.475C18.1492 60.9203 18.5565 60.4913 19.0679 60.188C19.5879 59.876 20.1599 59.72 20.7839 59.72C21.3472 59.72 21.8369 59.8327 22.2529 60.058C22.6775 60.2747 23.0155 60.5477 23.2669 60.877V59.837H24.7619V67H23.2669V65.934C23.0155 66.272 22.6732 66.5537 22.2399 66.779C21.8065 67.0043 21.3125 67.117 20.7579 67.117C20.1425 67.117 19.5792 66.961 19.0679 66.649C18.5565 66.3283 18.1492 65.8863 17.8459 65.323C17.5512 64.751 17.4039 64.1053 17.4039 63.386ZM23.2669 63.412C23.2669 62.918 23.1629 62.489 22.9549 62.125C22.7555 61.761 22.4912 61.4837 22.1619 61.293C21.8325 61.1023 21.4772 61.007 21.0959 61.007C20.7145 61.007 20.3592 61.1023 20.0299 61.293C19.7005 61.475 19.4319 61.748 19.2239 62.112C19.0245 62.4673 18.9249 62.892 18.9249 63.386C18.9249 63.88 19.0245 64.3133 19.2239 64.686C19.4319 65.0587 19.7005 65.3447 20.0299 65.544C20.3679 65.7347 20.7232 65.83 21.0959 65.83C21.4772 65.83 21.8325 65.7347 22.1619 65.544C22.4912 65.3533 22.7555 65.076 22.9549 64.712C23.1629 64.3393 23.2669 63.906 23.2669 63.412ZM29.4774 65.674L31.5054 59.837H33.0784L30.3484 67H28.5804L25.8634 59.837H27.4494L29.4774 65.674ZM33.7046 63.386C33.7046 62.6667 33.852 62.0297 34.1466 61.475C34.45 60.9203 34.8573 60.4913 35.3686 60.188C35.8886 59.876 36.4606 59.72 37.0846 59.72C37.648 59.72 38.1376 59.8327 38.5536 60.058C38.9783 60.2747 39.3163 60.5477 39.5676 60.877V59.837H41.0626V67H39.5676V65.934C39.3163 66.272 38.974 66.5537 38.5406 66.779C38.1073 67.0043 37.6133 67.117 37.0586 67.117C36.4433 67.117 35.88 66.961 35.3686 66.649C34.8573 66.3283 34.45 65.8863 34.1466 65.323C33.852 64.751 33.7046 64.1053 33.7046 63.386ZM39.5676 63.412C39.5676 62.918 39.4636 62.489 39.2556 62.125C39.0563 61.761 38.792 61.4837 38.4626 61.293C38.1333 61.1023 37.778 61.007 37.3966 61.007C37.0153 61.007 36.66 61.1023 36.3306 61.293C36.0013 61.475 35.7326 61.748 35.5246 62.112C35.3253 62.4673 35.2256 62.892 35.2256 63.386C35.2256 63.88 35.3253 64.3133 35.5246 64.686C35.7326 65.0587 36.0013 65.3447 36.3306 65.544C36.6686 65.7347 37.024 65.83 37.3966 65.83C37.778 65.83 38.1333 65.7347 38.4626 65.544C38.792 65.3533 39.0563 65.076 39.2556 64.712C39.4636 64.3393 39.5676 63.906 39.5676 63.412ZM43.7632 58.888C43.4945 58.888 43.2692 58.797 43.0872 58.615C42.9052 58.433 42.8142 58.2077 42.8142 57.939C42.8142 57.6703 42.9052 57.445 43.0872 57.263C43.2692 57.081 43.4945 56.99 43.7632 56.99C44.0232 56.99 44.2442 57.081 44.4262 57.263C44.6082 57.445 44.6992 57.6703 44.6992 57.939C44.6992 58.2077 44.6082 58.433 44.4262 58.615C44.2442 58.797 44.0232 58.888 43.7632 58.888ZM44.4912 59.837V67H43.0092V59.837H44.4912ZM47.9189 57.38V67H46.4369V57.38H47.9189ZM49.3706 63.386C49.3706 62.6667 49.518 62.0297 49.8126 61.475C50.116 60.9203 50.5233 60.4913 51.0346 60.188C51.5546 59.876 52.1266 59.72 52.7506 59.72C53.314 59.72 53.8036 59.8327 54.2196 60.058C54.6443 60.2747 54.9823 60.5477 55.2336 60.877V59.837H56.7286V67H55.2336V65.934C54.9823 66.272 54.64 66.5537 54.2066 66.779C53.7733 67.0043 53.2793 67.117 52.7246 67.117C52.1093 67.117 51.546 66.961 51.0346 66.649C50.5233 66.3283 50.116 65.8863 49.8126 65.323C49.518 64.751 49.3706 64.1053 49.3706 63.386ZM55.2336 63.412C55.2336 62.918 55.1296 62.489 54.9216 62.125C54.7223 61.761 54.458 61.4837 54.1286 61.293C53.7993 61.1023 53.444 61.007 53.0626 61.007C52.6813 61.007 52.326 61.1023 51.9966 61.293C51.6673 61.475 51.3986 61.748 51.1906 62.112C50.9913 62.4673 50.8916 62.892 50.8916 63.386C50.8916 63.88 50.9913 64.3133 51.1906 64.686C51.3986 65.0587 51.6673 65.3447 51.9966 65.544C52.3346 65.7347 52.69 65.83 53.0626 65.83C53.444 65.83 53.7993 65.7347 54.1286 65.544C54.458 65.3533 54.7223 65.076 54.9216 64.712C55.1296 64.3393 55.2336 63.906 55.2336 63.412ZM60.1572 60.903C60.4085 60.5563 60.7509 60.2747 61.1842 60.058C61.6262 59.8327 62.1159 59.72 62.6532 59.72C63.2859 59.72 63.8579 59.8717 64.3692 60.175C64.8805 60.4783 65.2835 60.9117 65.5782 61.475C65.8729 62.0297 66.0202 62.6667 66.0202 63.386C66.0202 64.1053 65.8729 64.751 65.5782 65.323C65.2835 65.8863 64.8762 66.3283 64.3562 66.649C63.8449 66.961 63.2772 67.117 62.6532 67.117C62.0985 67.117 61.6045 67.0087 61.1712 66.792C60.7465 66.5753 60.4085 66.298 60.1572 65.96V67H58.6752V57.38H60.1572V60.903ZM64.5122 63.386C64.5122 62.892 64.4082 62.4673 64.2002 62.112C64.0009 61.748 63.7322 61.475 63.3942 61.293C63.0649 61.1023 62.7095 61.007 62.3282 61.007C61.9555 61.007 61.6002 61.1023 61.2622 61.293C60.9329 61.4837 60.6642 61.761 60.4562 62.125C60.2569 62.489 60.1572 62.918 60.1572 63.412C60.1572 63.906 60.2569 64.3393 60.4562 64.712C60.6642 65.076 60.9329 65.3533 61.2622 65.544C61.6002 65.7347 61.9555 65.83 62.3282 65.83C62.7095 65.83 63.0649 65.7347 63.3942 65.544C63.7322 65.3447 64.0009 65.0587 64.2002 64.686C64.4082 64.3133 64.5122 63.88 64.5122 63.386ZM68.9677 57.38V67H67.4857V57.38H68.9677ZM77.4785 63.243C77.4785 63.5117 77.4611 63.7543 77.4265 63.971H71.9535C71.9968 64.543 72.2091 65.0023 72.5905 65.349C72.9718 65.6957 73.4398 65.869 73.9945 65.869C74.7918 65.869 75.3551 65.5353 75.6845 64.868H77.2835C77.0668 65.5267 76.6725 66.0683 76.1005 66.493C75.5371 66.909 74.8351 67.117 73.9945 67.117C73.3098 67.117 72.6945 66.9653 72.1485 66.662C71.6111 66.35 71.1865 65.9167 70.8745 65.362C70.5711 64.7987 70.4195 64.1487 70.4195 63.412C70.4195 62.6753 70.5668 62.0297 70.8615 61.475C71.1648 60.9117 71.5851 60.4783 72.1225 60.175C72.6685 59.8717 73.2925 59.72 73.9945 59.72C74.6705 59.72 75.2728 59.8673 75.8015 60.162C76.3301 60.4567 76.7418 60.8727 77.0365 61.41C77.3311 61.9387 77.4785 62.5497 77.4785 63.243ZM75.9315 62.775C75.9228 62.229 75.7278 61.7913 75.3465 61.462C74.9651 61.1327 74.4928 60.968 73.9295 60.968C73.4181 60.968 72.9805 61.1327 72.6165 61.462C72.2525 61.7827 72.0358 62.2203 71.9665 62.775H75.9315Z" fill="#888888"/>
</svg>
