<svg width="28" height="28" viewBox="0 0 28 28" fill="none" xmlns="http://www.w3.org/2000/svg">
<path d="M10.4985 17.1128H3.49561" stroke="white" stroke-width="2" stroke-linecap="round" stroke-linejoin="round"/>
<path d="M10.4985 10.8872H3.49561" stroke="white" stroke-width="2" stroke-linecap="round" stroke-linejoin="round"/>
<path d="M24.5044 23.3372H3.49561" stroke="white" stroke-width="2" stroke-linecap="round" stroke-linejoin="round"/>
<path d="M24.5044 4.66274H3.49561" stroke="white" stroke-width="2" stroke-linecap="round" stroke-linejoin="round"/>
<path fill-rule="evenodd" clip-rule="evenodd" d="M20.6632 17.9825C20.242 18.4032 19.6711 18.6395 19.0759 18.6397V18.6397C18.4806 18.6395 17.9097 18.4032 17.4886 17.9825L14.7971 15.2911C13.7227 14.1834 13.7361 12.4185 14.8273 11.3273C15.9185 10.2361 17.6834 10.2227 18.7911 11.2971L19.0759 11.5819L19.3607 11.2971C20.4683 10.2227 22.2333 10.2361 23.3245 11.3273C24.4157 12.4185 24.4291 14.1834 23.3547 15.2911L20.6632 17.9825Z" stroke="white" stroke-width="2" stroke-linecap="round" stroke-linejoin="round"/>
</svg>
